<svg width="59" height="60" viewBox="0 0 59 60" fill="none" xmlns="http://www.w3.org/2000/svg">
<path d="M38.4099 32.2804L40.9257 29.7646L34.6739 23.5066C35.171 23.1519 35.6305 22.7473 36.045 22.299L42.5484 28.796C42.8019 29.0547 42.9439 29.4025 42.9439 29.7646C42.9439 30.1268 42.8019 30.4746 42.5484 30.7332L39.5483 33.7459C39.0892 33.3345 38.7041 32.8473 38.4099 32.3056M26.8372 38.8844L29.353 41.4002L35.6425 35.1107C35.9987 35.6085 36.4032 36.0699 36.8501 36.4881L30.3467 42.9852C30.0892 43.2383 29.7425 43.3801 29.3813 43.3801C29.0202 43.3801 28.6735 43.2383 28.4159 42.9852L25.3969 40.0354C25.802 39.5595 26.29 39.161 26.8372 38.8593V38.8844ZM20.2584 27.3117L17.7426 29.8275L24.0321 36.0856C23.5343 36.4417 23.0729 36.8462 22.6547 37.2932L16.1576 30.7961C15.9041 30.5375 15.7621 30.1897 15.7621 29.8275C15.7621 29.4653 15.9041 29.1176 16.1576 28.8589L19.1263 25.8903C19.5806 26.2876 19.9636 26.7599 20.2584 27.2866V27.3117ZM30.3216 16.6196L33.2965 19.5945C32.8853 20.0555 32.3982 20.4427 31.8562 20.7392L29.3404 18.2234L23.0824 24.4814C22.7259 23.9858 22.3214 23.5265 21.8748 23.1103L28.3718 16.607C28.6275 16.354 28.9719 16.2111 29.3316 16.2088C29.6912 16.2064 30.0375 16.3448 30.2964 16.5944L30.3216 16.6196ZM9.49704 31.6578C9.6794 31.7987 9.88978 31.899 10.1141 31.9519C10.3384 32.0049 10.5714 32.0092 10.7975 31.9647C11.0236 31.9202 11.2376 31.8279 11.4251 31.6939C11.6126 31.5599 11.7693 31.3874 11.8847 31.1879C12.0001 30.9883 12.0714 30.7665 12.094 30.5371C12.1166 30.3078 12.0899 30.0762 12.0156 29.8581C11.9414 29.6399 11.8214 29.4401 11.6636 29.2721C11.5058 29.1041 11.314 28.9718 11.1009 28.8841C11.1108 28.4987 11.0179 28.1176 10.8317 27.78C10.6455 27.4424 10.3728 27.1605 10.0415 26.9634C9.71019 26.7662 9.33233 26.6608 8.94681 26.6582C8.56128 26.6555 8.18201 26.7556 7.848 26.9481C7.514 27.1406 7.23732 27.4187 7.04644 27.7537C6.85556 28.0886 6.75738 28.4684 6.76199 28.8539C6.76659 29.2394 6.87382 29.6167 7.07264 29.947C7.27147 30.2773 7.5547 30.5487 7.89321 30.7332C7.7706 30.9459 7.73752 31.1986 7.80121 31.4356C7.8649 31.6727 8.02016 31.8748 8.23285 31.9974C8.44553 32.12 8.69821 32.1531 8.93529 32.0894C9.17237 32.0257 9.37444 31.8704 9.49704 31.6578ZM19.0571 34.9849C18.0491 35.6553 16.8651 36.0121 15.6545 36.0101C15.1153 36.009 14.5785 35.9392 14.0569 35.8025C14.1269 35.6004 14.1609 35.3875 14.1576 35.1736C14.1576 34.6732 13.9588 34.1932 13.6049 33.8394C13.2511 33.4855 12.7711 33.2867 12.2707 33.2867C11.7703 33.2867 11.2904 33.4855 10.9365 33.8394C10.5826 34.1932 10.3839 34.6732 10.3839 35.1736C10.3839 37.2869 14.0318 38.0102 15.623 38.0102C17.3678 38.0107 19.067 37.4531 20.4722 36.4189L19.0571 34.9849ZM10.4153 24.4374C10.4153 24.9378 10.6141 25.4178 10.968 25.7716C11.3218 26.1255 11.8017 26.3243 12.3022 26.3243C12.8026 26.3243 13.2825 26.1255 13.6364 25.7716C13.9902 25.4178 14.189 24.9378 14.189 24.4374C14.1934 24.2234 14.1593 24.0104 14.0884 23.8085C14.6093 23.6688 15.1466 23.5989 15.6859 23.6009C16.6979 23.6008 17.6946 23.8486 18.5887 24.3226C19.4828 24.7967 20.2471 25.4825 20.8149 26.3203C21.3827 27.158 21.7366 28.1221 21.8457 29.1282C21.9549 30.1343 21.8158 31.1518 21.4408 32.0917L22.9566 33.6075C23.6121 32.356 23.9338 30.9566 23.8905 29.5444C23.8472 28.1323 23.4405 26.7552 22.7095 25.5462C21.9785 24.3372 20.9481 23.3372 19.7177 22.6427C18.4874 21.9483 17.0987 21.5829 15.6859 21.582C14.0381 21.5694 10.3901 22.2927 10.3901 24.4123L10.4153 24.4374ZM31.2084 49.6709C31.0514 49.5762 30.8697 49.5303 30.6864 49.5391C30.5032 49.5478 30.3268 49.6109 30.1795 49.7203C30.0323 49.8297 29.9209 49.9804 29.8595 50.1532C29.7982 50.3261 29.7896 50.5133 29.8349 50.691C29.8802 50.8687 29.9774 51.029 30.114 51.1513C30.2507 51.2737 30.4207 51.3526 30.6023 51.3781C30.7839 51.4036 30.969 51.3745 31.1341 51.2945C31.2991 51.2145 31.4367 51.0872 31.5292 50.9288C31.5928 50.8224 31.6343 50.7042 31.6513 50.5814C31.6683 50.4586 31.6604 50.3337 31.6281 50.214C31.5959 50.0943 31.5399 49.9823 31.4634 49.8847C31.387 49.787 31.2917 49.7058 31.1833 49.6458L31.2084 49.6709ZM34.5355 40.1109C35.0147 40.8404 35.3346 41.6628 35.4744 42.5244C35.6142 43.386 35.5708 44.2674 35.3469 45.111C35.145 45.0401 34.9319 45.006 34.718 45.0104C34.2635 45.0694 33.846 45.2919 33.5435 45.6362C33.241 45.9805 33.0742 46.4232 33.0742 46.8815C33.0742 47.3398 33.241 47.7825 33.5435 48.1268C33.846 48.4711 34.2635 48.6936 34.718 48.7526C36.8375 48.7526 37.5608 45.1047 37.5608 43.5135C37.5614 41.7687 37.0038 40.0695 35.9696 38.6643L34.5355 40.1109ZM23.9818 48.7526C24.2478 48.7872 24.5182 48.7646 24.7749 48.6864C25.0316 48.6082 25.2686 48.4761 25.4702 48.2991C25.6717 48.122 25.8332 47.9039 25.9439 47.6595C26.0545 47.4151 26.1117 47.1498 26.1117 46.8815C26.1117 46.6132 26.0545 46.348 25.9439 46.1035C25.8332 45.8591 25.6717 45.641 25.4702 45.464C25.2686 45.2869 25.0316 45.1548 24.7749 45.0766C24.5182 44.9984 24.2478 44.9758 23.9818 45.0104C23.7679 45.007 23.555 45.0411 23.3528 45.111C23.2161 44.5895 23.1464 44.0526 23.1453 43.5135C23.1462 42.5012 23.395 41.5046 23.8698 40.6106C24.3446 39.7166 25.031 38.9525 25.8692 38.3848C26.7073 37.8172 27.6716 37.4634 28.6779 37.3542C29.6843 37.245 30.702 37.3839 31.6424 37.7586L33.1581 36.2428C31.9066 35.5873 30.5072 35.2656 29.0951 35.3089C27.683 35.3521 26.3058 35.7589 25.0968 36.4899C23.8878 37.2209 22.8878 38.2513 22.1933 39.4817C21.4989 40.712 21.1336 42.1007 21.1326 43.5135C21.12 45.067 21.8434 48.7275 23.9566 48.7275L23.9818 48.7526ZM49.2216 31.6578C49.0392 31.7987 48.8288 31.899 48.6045 31.9519C48.3802 32.0049 48.1472 32.0092 47.9211 31.9647C47.695 31.9202 47.4809 31.8279 47.2934 31.6939C47.1059 31.5599 46.9493 31.3874 46.8339 31.1879C46.7185 30.9883 46.6472 30.7665 46.6246 30.5371C46.602 30.3078 46.6287 30.0762 46.703 29.8581C46.7772 29.6399 46.8972 29.4401 47.055 29.2721C47.2127 29.1041 47.4046 28.9718 47.6177 28.8841C47.6078 28.4987 47.7006 28.1176 47.8868 27.78C48.073 27.4424 48.3458 27.1605 48.6771 26.9634C49.0084 26.7662 49.3863 26.6608 49.7718 26.6582C50.1573 26.6555 50.5366 26.7556 50.8706 26.9481C51.2046 27.1406 51.4813 27.4187 51.6721 27.7537C51.863 28.0886 51.9612 28.4684 51.9566 28.8539C51.952 29.2394 51.8448 29.6167 51.646 29.947C51.4471 30.2773 51.1639 30.5487 50.8254 30.7332C50.8861 30.8385 50.9254 30.9548 50.9412 31.0753C50.957 31.1958 50.9489 31.3183 50.9174 31.4356C50.8859 31.553 50.8315 31.6631 50.7574 31.7595C50.6834 31.8558 50.5911 31.9367 50.4858 31.9974C50.3804 32.0581 50.2642 32.0975 50.1437 32.1133C50.0232 32.129 49.9007 32.1209 49.7833 32.0894C49.6659 32.0579 49.5559 32.0035 49.4595 31.9295C49.3631 31.8554 49.2823 31.7631 49.2216 31.6578ZM37.3092 27.513C36.9345 28.4533 36.7957 29.4711 36.9049 30.4774C37.014 31.4838 37.3679 32.4481 37.9355 33.2862C38.5031 34.1243 39.2673 34.8108 40.1613 35.2856C41.0553 35.7604 42.0519 36.0091 43.0641 36.0101C43.6033 36.009 44.1401 35.9392 44.6617 35.8025C44.5897 35.6007 44.5536 35.3879 44.5548 35.1736C44.5548 34.6732 44.7535 34.1932 45.1074 33.8394C45.4612 33.4855 45.9412 33.2867 46.4416 33.2867C46.942 33.2867 47.4219 33.4855 47.7758 33.8394C48.1296 34.1932 48.3285 34.6732 48.3285 35.1736C48.3285 37.2869 44.6805 38.0102 43.0893 38.0102C41.6765 38.0092 40.2878 37.6439 39.0575 36.9494C37.8271 36.255 36.7967 35.255 36.0657 34.046C35.3347 32.837 34.9279 31.4598 34.8846 30.0477C34.8414 28.6356 35.1631 27.2361 35.8186 25.9846L37.3092 27.513ZM48.3033 24.4374C48.3033 24.9378 48.1045 25.4178 47.7506 25.7716C47.3968 26.1255 46.9169 26.3243 46.4164 26.3243C45.916 26.3243 45.4361 26.1255 45.0822 25.7716C44.7284 25.4178 44.5296 24.9378 44.5296 24.4374C44.5272 24.2231 44.5634 24.01 44.6365 23.8085C43.7881 23.5799 42.901 23.5341 42.0336 23.674C41.1662 23.8138 40.3384 24.1362 39.6049 24.6198L38.1583 23.1732C39.5635 22.139 41.2627 21.5814 43.0075 21.582C44.6554 21.5694 48.2781 22.2927 48.2781 24.4123L48.3033 24.4374ZM31.2084 9.97156C31.495 10.5362 31.5914 11.1783 31.4833 11.8022C31.3753 12.4261 31.0685 12.9984 30.6087 13.4337C30.1489 13.869 29.5607 14.1442 28.9319 14.218C28.303 14.2919 27.6671 14.1605 27.119 13.8436C26.5708 13.5266 26.1398 13.041 25.8901 12.4591C25.6404 11.8773 25.5854 11.2303 25.7333 10.6146C25.8813 9.99896 26.2242 9.44759 26.711 9.04268C27.1978 8.63778 27.8024 8.40103 28.4348 8.36773C28.5225 8.15463 28.6548 7.96275 28.8228 7.80498C28.9908 7.6472 29.1906 7.52719 29.4087 7.45296C29.6269 7.37872 29.8584 7.352 30.0878 7.37459C30.3171 7.39717 30.539 7.46854 30.7385 7.5839C30.938 7.69926 31.1105 7.85593 31.2445 8.04344C31.3785 8.23095 31.4709 8.44495 31.5154 8.67107C31.5599 8.89719 31.5555 9.13021 31.5026 9.35451C31.4496 9.57881 31.3493 9.7892 31.2084 9.97156ZM27.0448 21.8336C27.9847 22.2086 29.0022 22.3476 30.0084 22.2385C31.0145 22.1294 31.9785 21.7755 32.8162 21.2077C33.6539 20.6399 34.3398 19.8755 34.8139 18.9814C35.2879 18.0873 35.5357 17.0907 35.5356 16.0787C35.5375 15.5393 35.4677 15.0021 35.328 14.4811C35.1265 14.5542 34.9134 14.5904 34.6991 14.5881C34.1987 14.5881 33.7188 14.3893 33.3649 14.0354C33.011 13.6815 32.8122 13.2016 32.8122 12.7012C32.8122 12.2008 33.011 11.7208 33.3649 11.367C33.7188 11.0131 34.1987 10.8144 34.6991 10.8144C36.8186 10.8144 37.5419 14.4623 37.5419 16.0535C37.541 17.4663 37.1756 18.855 36.4812 20.0853C35.7868 21.3157 34.7867 22.3461 33.5777 23.0771C32.3687 23.8081 30.9916 24.2149 29.5795 24.2581C28.1673 24.3014 26.7679 23.9797 25.5164 23.3242L27.0448 21.8336ZM23.9629 10.8395C24.4633 10.8395 24.9432 11.0383 25.2971 11.3922C25.651 11.746 25.8497 12.2259 25.8497 12.7263C25.8497 13.2268 25.651 13.7067 25.2971 14.0606C24.9432 14.4144 24.4633 14.6132 23.9629 14.6132C23.7486 14.6144 23.5358 14.5782 23.3339 14.5063C23.1972 15.0278 23.1275 15.5647 23.1264 16.1038C23.1252 17.3134 23.4795 18.4966 24.1453 19.5064L22.705 20.953C21.6708 19.5478 21.1132 17.8486 21.1138 16.1038C21.12 14.4874 21.8434 10.8395 23.9566 10.8395H23.9629ZM56.2092 28.8841L30.2335 2.92731C29.9928 2.69295 29.6701 2.56181 29.3341 2.56181C28.9982 2.56181 28.6755 2.69295 28.4348 2.92731L2.46538 28.8967C2.34557 29.0138 2.25037 29.1537 2.18538 29.3082C2.12038 29.4626 2.08689 29.6285 2.08689 29.7961C2.08689 29.9636 2.12038 30.1295 2.18538 30.284C2.25037 30.4384 2.34557 30.5783 2.46538 30.6955L28.4348 56.6648C28.5519 56.7847 28.6918 56.8799 28.8462 56.9448C29.0007 57.0098 29.1666 57.0433 29.3341 57.0433C29.5017 57.0433 29.6676 57.0098 29.822 56.9448C29.9765 56.8799 30.1164 56.7847 30.2335 56.6648L56.2029 30.6955C56.4373 30.4547 56.5684 30.132 56.5684 29.7961C56.5684 29.4601 56.4373 29.1374 56.2029 28.8967L56.2092 28.8841ZM31.7242 1.4304L57.6935 27.3998C58.3257 28.032 58.6808 28.8894 58.6808 29.7835C58.6808 30.6776 58.3257 31.535 57.6935 32.1672L31.7242 58.1366C31.0919 58.7688 30.2345 59.1239 29.3404 59.1239C28.4464 59.1239 27.5889 58.7688 26.9567 58.1366L0.987342 32.1672C0.355159 31.535 0 30.6776 0 29.7835C0 28.8894 0.355159 28.032 0.987342 27.3998L26.9567 1.4304C27.5905 0.801283 28.4474 0.448242 29.3404 0.448242C30.2335 0.448242 31.0903 0.801283 31.7242 1.4304Z" fill="#C39F89"/>
</svg>
